<svg xmlns="http://www.w3.org/2000/svg" width="173.072" height="133.331" viewBox="0 0 173.072 133.331">
  <path id="Path_6" data-name="Path 6" d="M738.45,613.256a14.307,14.307,0,0,1,14.306,14.31,15.072,15.072,0,0,1-.3,2.951,14.267,14.267,0,0,1,22.848,9.563h.126a23.232,23.232,0,0,1,22.861,19.013c.021.109.031.229.052.345a5.715,5.715,0,0,1,5.577,5.714,5.713,5.713,0,0,1,5.577-5.714c.02-.116.031-.236.048-.345a23.242,23.242,0,0,1,22.862-19.013h.119a14.279,14.279,0,0,1,22.862-9.562,14.822,14.822,0,0,1-.318-2.951,14.3,14.3,0,0,1,27.714-4.962,36.965,36.965,0,0,0-65.046-14.853,14.342,14.342,0,0,0-5.939-8.272,8.748,8.748,0,0,1,1.011,4.1,8.9,8.9,0,1,1-17.79,0,8.753,8.753,0,0,1,1.018-4.1,14.359,14.359,0,0,0-5.932,8.272,36.968,36.968,0,0,0-65.05,14.853A14.29,14.29,0,0,1,738.45,613.256Z" transform="matrix(0.899, 0.438, -0.438, 0.899, -360.096, -851.49)" fill="#3b5755"/>
</svg>
