<svg xmlns="http://www.w3.org/2000/svg" width="93.119" height="116.279" viewBox="0 0 93.119 116.279">
  <g id="Group_7" data-name="Group 7" transform="translate(-664.652 92.747)">
    <path id="Path_8" data-name="Path 8" d="M713.819-56.151c-1.829-11.862-10.85-18.619-21.869-16.463-8.3,1.627-14.272,9.989-13.579,20.725a48.454,48.454,0,0,0,1.5,6.715c.026.007-11.871-1.4-13.01,6.127-.292,1.932,2.289,4.628,5.155,4.444,2.685-.173,5.427-2.433,7.9-2.592,5.107-.323,7.366,9.126,7.731,14.786C688.666-6.55,680.677-9.4,671.667-5.687c-5.939,2.448-7.016,12.955-7.016,12.955s3.849-6.056,10.77-6.5c3.185-.206,5.366.885,11.893.815,32.6-.345,31.528-31.535,31.21-36.473-.584-9.06-2.649-10.956-1.736-12.568,2.53-4.493,7.915.43,11.194-.961C730.469-49.476,730.3-62.889,713.819-56.151Zm-14.793-6.893a2.2,2.2,0,0,1,2.256,2.125,2.2,2.2,0,0,1-1.964,2.4,2.2,2.2,0,0,1-2.258-2.127A2.2,2.2,0,0,1,699.025-63.044Zm-13.352,4.819a3.7,3.7,0,0,1,3.305-4.04,3.7,3.7,0,0,1,3.791,3.583,3.69,3.69,0,0,1-3.3,4.033A3.691,3.691,0,0,1,685.673-58.225ZM698.1-43.36c-3.683.753-6.767.861-7.329-1.877s1.972-5.567,5.649-6.319,7.12.857,7.676,3.6S701.773-44.11,698.1-43.36Z" transform="translate(0 16.264)" fill="#fff"/>
    <path id="Path_9" data-name="Path 9" d="M700.009-69.494a2.65,2.65,0,0,1-.235.81,2.783,2.783,0,0,1-.285.792,2.812,2.812,0,0,1-.666.514,2.694,2.694,0,0,1-.7.472,2.739,2.739,0,0,1-.841.027,2.75,2.75,0,0,1-.843-.027,2.636,2.636,0,0,1-.695-.474,2.729,2.729,0,0,1-.666-.514,2.787,2.787,0,0,1-.285-.792,2.692,2.692,0,0,1-.234-.808,2.7,2.7,0,0,1,.234-.81,2.713,2.713,0,0,1,.286-.792,2.716,2.716,0,0,1,.664-.514,2.677,2.677,0,0,1,.7-.474,2.8,2.8,0,0,1,.841-.026,2.753,2.753,0,0,1,.843.027,2.694,2.694,0,0,1,.695.472,2.725,2.725,0,0,1,.664.516,2.716,2.716,0,0,1,.286.792A2.673,2.673,0,0,1,700.009-69.494Z" transform="translate(24.652 16.991)" fill="#fff"/>
    <path id="Path_10" data-name="Path 10" d="M696.379-66.344a1.719,1.719,0,0,1-.151.522,1.748,1.748,0,0,1-.184.509,1.739,1.739,0,0,1-.427.332,1.773,1.773,0,0,1-.449.3,1.83,1.83,0,0,1-.54.016,1.791,1.791,0,0,1-.543-.018,1.67,1.67,0,0,1-.447-.3,1.754,1.754,0,0,1-.429-.332,1.742,1.742,0,0,1-.182-.509,1.722,1.722,0,0,1-.151-.52,1.718,1.718,0,0,1,.151-.522,1.745,1.745,0,0,1,.184-.509,1.739,1.739,0,0,1,.427-.332,1.77,1.77,0,0,1,.449-.3,1.78,1.78,0,0,1,.542-.016,1.784,1.784,0,0,1,.542.016,1.761,1.761,0,0,1,.447.3,1.844,1.844,0,0,1,.429.332,1.815,1.815,0,0,1,.184.511A1.742,1.742,0,0,1,696.379-66.344Z" transform="translate(23.259 20.36)" fill="#fff"/>
    <path id="Path_11" data-name="Path 11" d="M734.953-77.527c-.414-2.7-2.388-4.77-4.339-6.846-1.716-1.826-3.5-4.055-6.224-5.275-2.295-1.027-5.168-1.014-8.072-1.536-2.515-.451-5.164-1.541-8.064-1.563-1.975-.015-3.654,1.058-5.268,1.529-1.839.534-3.825.629-5.191,1.724-1.4,1.124-1.919,3.059-2.818,4.693-.83,1.51-2.231,2.931-2.625,4.81-.352,1.676.312,3.573.312,5.5,0,1.963-.642,3.863-.254,5.507.443,1.879,1.908,3.221,2.844,4.681.985,1.534,1.634,3.411,3.146,4.482,1.4.992,3.407,1.034,5.253,1.623,1.614.516,3.22,1.7,5.159,1.912,1.093.115,3.267-.657,5.921-.958,1.784-.2,3.958.254,5.987-.385,1.822-.573,3.318-2.127,5.053-3.2,1.631-1.012,3.714-1.647,5.038-3.229,1.2-1.428,1.5-3.542,2.277-5.529C734.2-72.448,735.333-75.055,734.953-77.527ZM713.268-63.6a2.2,2.2,0,0,1-1.609.591,2.146,2.146,0,0,1-1.587-.6,2.117,2.117,0,0,1-.6-1.565,2.13,2.13,0,0,1,.591-1.576,2.159,2.159,0,0,1,1.6-.591,2.2,2.2,0,0,1,1.609.591,2.108,2.108,0,0,1,.6,1.576A2.108,2.108,0,0,1,713.268-63.6Zm4.48-12.209a14.471,14.471,0,0,1-5.286,3.128l.626,3.426h-3.163l-.888-4.183q4.84-2.966,4.841-6.917a3.525,3.525,0,0,0-.823-2.554,2.916,2.916,0,0,0-2.174-.839A4.009,4.009,0,0,0,709-83.3a3.32,3.32,0,0,0-1.348,1.268,3.537,3.537,0,0,1,1.563,1.005,2.442,2.442,0,0,1,.642,1.7,2.567,2.567,0,0,1-.872,1.977,2.972,2.972,0,0,1-2.059.788,3.362,3.362,0,0,1-1.614-.427,3.351,3.351,0,0,1-1.284-1.251,3.705,3.705,0,0,1-.494-1.945,4.966,4.966,0,0,1,1.038-3.013,7.152,7.152,0,0,1,2.931-2.24,10.76,10.76,0,0,1,4.4-.841,10.433,10.433,0,0,1,4.117.759,6.364,6.364,0,0,1,2.751,2.109,5.179,5.179,0,0,1,.97,3.1A6.119,6.119,0,0,1,717.749-75.808Z" transform="translate(22.742)" fill="#fff"/>
  </g>
</svg>
