<svg xmlns="http://www.w3.org/2000/svg" width="173.284" height="97.237" viewBox="0 0 173.284 97.237">
  <path id="Path_7" data-name="Path 7" d="M742.751,563.172c-23.68-5.914-43.18,7.029-59.939,16.682a152.045,152.045,0,0,1-26.282,11.716c6.974,3.161,13.461,5.805,19.6,8.071l-49.36,21.368,12.72,11.807,50.535-28.531c4.018,1.189,7.823,2.147,11.447,2.931-1.651,6.886-3.9,18.839-.5,22.137a1.8,1.8,0,0,0,1.1.521L724.9,640.856v6.218h1.333l1.077-5.281,7.757,1.714,1.367,3.567h.857V642.8l1.332.021.972,4.256h1.238l-1.081-5.389-7.7-2.133-25.211-12.418c4.42-4.309,9.736-12.643,12.614-17.4,1.486.074,2.917.1,4.316.1-1.018,6.092-1.413,12.663.962,14.979a1.815,1.815,0,0,0,1.1.521l22.837,10.981v6.218h1.336l1.074-5.281,7.757,1.714,1.367,3.567h.853v-4.277l1.332.021.976,4.256h1.238l-1.077-5.389-7.708-2.134-25.208-12.415c3.822-3.732,8.313-10.46,11.32-15.293,21.826-6.837,27.674-25.589,31.828-33.608,7.362-14.192,26.288,0,26.288,0C765.427,527.059,742.751,563.172,742.751,563.172Z" transform="translate(-626.769 -549.837)" fill="#3b5755"/>
</svg>
